<?xml version="1.0" standalone="no"?>
<!DOCTYPE svg PUBLIC "-//W3C//DTD SVG 20010904//EN"
 "http://www.w3.org/TR/2001/REC-SVG-20010904/DTD/svg10.dtd">
<svg version="1.0" xmlns="http://www.w3.org/2000/svg"
 width="512.000000pt" height="512.000000pt" viewBox="0 0 512.000000 512.000000"
 preserveAspectRatio="xMidYMid meet">

<g transform="translate(0.000000,512.000000) scale(0.100000,-0.100000)"
fill="#000000" stroke="none">
<path d="M2325 5110 c-484 -49 -925 -220 -1310 -509 -127 -96 -343 -306 -448
-436 -700 -868 -756 -2090 -139 -3019 194 -294 476 -568 779 -758 125 -79 369
-196 503 -243 817 -282 1706 -143 2395 374 121 92 319 282 427 411 174 208
346 509 437 765 171 483 196 999 71 1495 -87 347 -267 704 -495 985 -99 122
-318 334 -440 426 -362 271 -777 441 -1225 499 -115 15 -444 21 -555 10z m188
-1281 c47 -13 102 -60 128 -110 18 -37 19 -69 19 -1159 0 -1083 -1 -1122 -19
-1158 -36 -71 -118 -123 -190 -122 -56 1 -112 36 -458 283 l-359 256 -216 3
-216 3 -43 30 c-23 17 -53 50 -66 74 l-23 44 0 587 0 587 23 44 c13 24 43 58
66 74 l43 30 216 3 216 3 359 256 c197 141 375 262 395 269 45 16 76 17 125 3z
m765 -754 c21 -9 82 -61 140 -118 l102 -102 103 102 c107 107 149 133 217 133
146 0 250 -154 195 -288 -9 -21 -61 -82 -118 -139 l-102 -103 102 -102 c57
-58 109 -119 118 -140 55 -134 -49 -288 -195 -288 -68 0 -110 26 -217 133
l-103 102 -102 -102 c-58 -57 -119 -109 -140 -118 -133 -55 -288 50 -288 195
0 69 21 104 128 212 l106 108 -106 108 c-107 109 -128 145 -128 212 0 145 155
250 288 195z"/>
</g>
</svg>
