<?xml version="1.0" standalone="no"?>
<!DOCTYPE svg PUBLIC "-//W3C//DTD SVG 20010904//EN"
 "http://www.w3.org/TR/2001/REC-SVG-20010904/DTD/svg10.dtd">
<svg version="1.0" xmlns="http://www.w3.org/2000/svg"
 width="512.000000pt" height="512.000000pt" viewBox="0 0 512.000000 512.000000"
 preserveAspectRatio="xMidYMid meet">

<g transform="translate(0.000000,512.000000) scale(0.100000,-0.100000)"
fill="#000000" stroke="none">
<path d="M2325 5109 c-476 -44 -922 -218 -1313 -511 -124 -93 -341 -304 -445
-433 -538 -667 -706 -1566 -445 -2383 94 -296 250 -585 449 -831 100 -125 319
-337 441 -429 259 -194 561 -344 857 -427 773 -214 1594 -58 2236 424 121 92
319 282 427 411 290 346 491 798 559 1253 101 682 -74 1366 -493 1925 -147
196 -405 439 -616 580 -484 324 -1078 475 -1657 421z m-124 -1604 c54 -19 96
-58 120 -110 18 -38 19 -82 19 -835 0 -893 4 -842 -75 -908 -100 -82 -247 -55
-312 56 l-28 47 0 805 0 805 27 47 c53 89 153 127 249 93z m895 -20 c27 -16
54 -43 71 -73 l28 -47 0 -805 0 -805 -28 -47 c-30 -52 -88 -92 -149 -103 -54
-10 -137 17 -175 57 -67 71 -63 14 -63 898 0 768 1 802 19 838 58 113 188 151
297 87z"/>
</g>
</svg>
