<?xml version="1.0" standalone="no"?>
<!DOCTYPE svg PUBLIC "-//W3C//DTD SVG 20010904//EN"
 "http://www.w3.org/TR/2001/REC-SVG-20010904/DTD/svg10.dtd">
<svg version="1.0" xmlns="http://www.w3.org/2000/svg"
 width="512.000000pt" height="512.000000pt" viewBox="0 0 512.000000 512.000000"
 preserveAspectRatio="xMidYMid meet">

<g transform="translate(0.000000,512.000000) scale(0.100000,-0.100000)"
fill="#000000" stroke="none">
<path d="M2325 5110 c-486 -49 -922 -219 -1313 -512 -124 -93 -341 -304 -445
-433 -538 -667 -706 -1566 -445 -2383 94 -296 250 -585 449 -831 100 -125 319
-337 441 -429 259 -194 561 -344 857 -427 245 -67 420 -90 701 -89 179 0 254
5 365 22 540 84 1012 317 1394 687 231 224 385 433 520 706 276 554 342 1169
191 1769 -87 347 -267 704 -495 985 -99 122 -318 334 -440 426 -362 271 -777
441 -1225 499 -115 15 -444 21 -555 10z m188 -1281 c47 -13 102 -60 128 -110
18 -37 19 -69 19 -1159 0 -1083 -1 -1122 -19 -1158 -36 -71 -118 -123 -190
-122 -56 1 -112 36 -458 283 l-359 256 -216 3 -216 3 -43 30 c-23 17 -53 50
-66 74 l-23 44 0 587 0 587 23 44 c13 24 43 58 66 74 l43 30 216 3 216 3 359
256 c197 141 375 262 395 269 45 16 76 17 125 3z m1096 -28 c42 -22 123 -107
205 -216 407 -539 455 -1277 122 -1864 -97 -172 -255 -364 -329 -403 -113 -59
-255 -1 -296 121 -29 87 -5 151 94 261 439 484 442 1227 6 1712 -106 119 -129
181 -100 269 42 126 179 180 298 120z m-461 -450 c20 -11 58 -41 83 -68 155
-161 253 -377 280 -617 33 -295 -75 -616 -280 -829 -61 -64 -107 -87 -173 -87
-111 0 -197 77 -206 184 -6 72 11 117 65 179 240 269 240 625 0 894 -54 62
-71 107 -65 179 9 106 96 184 205 184 33 0 68 -7 91 -19z"/>
</g>
</svg>
